<svg xmlns="http://www.w3.org/2000/svg" width="165" height="165" viewBox="0 0 165 165"><defs><style>.a{fill:#ffa12b;}.b{fill:#f300d6;}</style></defs><title>favicon</title><path class="a" d="M31.14,16q0-.26-.2,8l-9.62-.4q.3-6.12.3-7.09a7.82,7.82,0,0,0-1.42-4.68,4.83,4.83,0,0,0-4.25-2.24q-6.24,0-6.12,7.09l.5,39.9q.1,7.09,4.08,7.09,5.43,0,6.12-7.09.35-5.23,1.09-15.69L15,41l-.62-8.22H29.3l-.6,25.71a17,17,0,0,1-3.78,11A13,13,0,0,1,14.5,74.06,12.87,12.87,0,0,1,4.09,69.49a16.4,16.4,0,0,1-3.68-11V16.6A16.49,16.49,0,0,1,4.34,5.39,13.35,13.35,0,0,1,15,.62Q31.14.62,31.14,16Z"/><path class="a" d="M67.84,1.12,65.6,58.05A17.34,17.34,0,0,1,61.76,69,12.75,12.75,0,0,1,51.4,73.54a14.27,14.27,0,0,1-10.85-4.48,16,16,0,0,1-4.25-11l-1-55L46.65,1.07l-.28,56.48v.1q0,6.83,4.08,6.83,6.53,0,6.53-6.93V2.66Z"/><path class="a" d="M99.47,1.6l-.6,8.28-14.6-.6L82.93,31.35,95,31.06l-.3,9.07-12.26-.6L80.89,65.08l18-2.55V71.7L74.35,73,73.07,2.19Z"/><path class="a" d="M131.64,16.11q0,2.64-.16,6.77l-.26,6.83-8.67-3.19q.5-10.26.5-10.61,0-6.32-5.09-6.32a5.67,5.67,0,0,0-4.51,1.9,7.17,7.17,0,0,0-1.62,4.83v1.25q0,4.44.2,6.83a19.27,19.27,0,0,0,5.38,11.46l8.67,8.77a18.05,18.05,0,0,1,4.53,11.8,21.26,21.26,0,0,1-3.19,12.26,12.54,12.54,0,0,1-11,5.38A13,13,0,0,1,106,69.5a16.54,16.54,0,0,1-3.64-11V50l9.21-2.93q0,1.35-.16,5.67,0,3.54,0,5.67,0,6.73,4,6.73,5.67,0,5.67-9a15.83,15.83,0,0,0-3.25-9.51,64,64,0,0,0-7-7.23A33.7,33.7,0,0,1,104.45,32q-2.14-3.88-2.14-14.1V16.75a16.49,16.49,0,0,1,3.94-11.21A13.35,13.35,0,0,1,116.91.76a13.8,13.8,0,0,1,10.66,4.58A15.5,15.5,0,0,1,131.64,16.11Z"/><path class="a" d="M165.82,16.11q0,2.64-.16,6.77l-.26,6.83-8.67-3.19q.5-10.26.5-10.61,0-6.32-5.09-6.32a5.67,5.67,0,0,0-4.49,1.93A7.17,7.17,0,0,0,146,16.35V17.6q0,4.44.2,6.83a19.27,19.27,0,0,0,5.38,11.46l8.67,8.77a18.05,18.05,0,0,1,4.53,11.8,21.26,21.26,0,0,1-3.19,12.26,12.54,12.54,0,0,1-11,5.38,13,13,0,0,1-10.46-4.58,16.54,16.54,0,0,1-3.64-11V50l9.21-2.93q0,1.35-.16,5.67v5.67q0,6.73,4,6.73,5.67,0,5.67-9A15.83,15.83,0,0,0,152,46.67a64,64,0,0,0-7-7.23A33.7,33.7,0,0,1,138.64,32q-2.14-3.88-2.14-14.1V16.77a16.49,16.49,0,0,1,3.94-11.21A13.35,13.35,0,0,1,151.1.79a13.8,13.8,0,0,1,10.66,4.58A15.5,15.5,0,0,1,165.82,16.11Z"/><path class="a" d="M45.69,91.35l-7.31,71.45-11.56-1L24,117.87l-4,44.92-11.41-1L.17,92.37l10.42-.5L15,151.16l5.09-59.29h7.43l4.44,59.29,5.88-59.29Z"/><path class="a" d="M80.3,163l-10.61-1.42.79-29.25-10.42-.75-1,30.34-6.32.69-2.83-70.5,11.66-1-1.15,33.48,10.32-.6.95-32.14L78,91.08Z"/><path class="a" d="M113.47,148.2a17.17,17.17,0,0,1-3.78,11,14.17,14.17,0,0,1-20,.81q-.42-.39-.81-.81a16.4,16.4,0,0,1-3.68-11V106.35a16.49,16.49,0,0,1,3.94-11.21,13.35,13.35,0,0,1,10.66-4.78A13.63,13.63,0,0,1,110.42,95a15.91,15.91,0,0,1,3.94,11v.4Zm-7.57-41.85v-.69q0-6.32-5.09-6.32-5.88,0-6.12,7.09,0,4.53-.2,13.5-.3,18.73-.3,28.14,0,6.73,4.08,6.73,5.23,0,5.58-6.93Z"/><path class="b" d="M133.28,140l10.79.4c.37,3.82.77,7.29,1,10.77.14,1.84-.78,3-2.72,2.94-2.92-.14-5.82-.4-8.72-.67-1.58-.14-2.18-1-1.9-2.63C132.32,147.45,132.73,144,133.28,140Z"/><path class="b" d="M157.24,89.38q0-.93,0-1.39,0-2-.67-2t-.7,1.91l0,2.88q0,1.75.64,1.75.41,0,.59-.69a4.16,4.16,0,0,0,.15-1.05Q157.24,90.31,157.24,89.38Z"/><polygon class="b" points="141.95 90.43 142.64 90.37 142.32 86.12 141.95 90.43"/><path class="b" d="M165.35,121.11c-2.08-8.26-1.11-16.53-.37-24.85.46-5.19.24-10.45.35-15.68,0-1.74-.83-2.47-2.52-2.44-1.89,0-3.78-.14-5.66,0-9.24.74-18.47,1.57-27.7,2.32-5.1.42-5.08.38-6.72,5.18-2.3,6.74-4.59,13.48-7,20.19-.75,2.11-.52,3.36,1.9,4,2.84.7,5.57,1.75,8.38,2.51,3.69,1,7.42,1.86,11,2.75.86-3.83,1.52-7.27,2.45-10.64.29-1,1.21-2.43,2.1-2.65a77.93,77.93,0,0,1,11.33-2.19c3-.32,4.73,1.21,4.52,4.22A77.55,77.55,0,0,1,155.65,116c-.8,3.51-1.93,3.85-5.64,3.7a95.87,95.87,0,0,0-11.55.24c-1.11.09-2.86,1.22-3,2.12-1,5.12-1.55,10.31-2.27,15.52a5.1,5.1,0,0,0,1.17.42c3.76.18,7.51.33,11.61.5,0-1.61.05-3.12,0-4.63,0-3.62.71-4.77,4.05-6,1.21-.44,2.46-.77,3.69-1.16,3.35-1.07,6.74-2.06,10-3.32C164.49,123.09,165.5,121.72,165.35,121.11ZM136,92.8a1.52,1.52,0,0,1-1.34.64,1.58,1.58,0,0,1-1.26-.57,2,2,0,0,1-.43-1.35v-1l1.12-.34a6.8,6.8,0,0,0,0,.68q0,.43,0,.69,0,.82.48.82.69,0,.7-1.08a1.94,1.94,0,0,0-.36-1.16,7.88,7.88,0,0,0-.86-.88,4.11,4.11,0,0,1-.77-.91A3.88,3.88,0,0,1,133,86.6l0-.13a2,2,0,0,1,.49-1.36,1.62,1.62,0,0,1,1.3-.57,1.68,1.68,0,0,1,1.29.57,1.88,1.88,0,0,1,.48,1.33c0,.22,0,.49,0,.82l0,.83-1-.39q.07-1.24.07-1.29,0-.77-.61-.77a.68.68,0,0,0-.55.22.87.87,0,0,0-.2.58l0,.15q0,.54,0,.83a2.34,2.34,0,0,0,.64,1.4l1,1.07a2.19,2.19,0,0,1,.54,1.44A2.58,2.58,0,0,1,136,92.8Zm1.8.55.34-7.57L136.9,86l0-1.17,3.41-.1v.78l-1.27.19.25,7.57Zm5.06,0-.16-1.93-.84-.08-.17,2-1.3.05,1.11-8.66,1.6.08.73,8.43Zm4.46-.34a1.71,1.71,0,0,1-2.42.09L144.8,93a2,2,0,0,1-.42-1.34l0-5.08a2,2,0,0,1,.49-1.36,1.62,1.62,0,0,1,1.3-.57q2,0,1.94,1.89l0,1L147,87.43q0-.74,0-.86a1,1,0,0,0-.17-.57.59.59,0,0,0-.51-.28q-.76,0-.75.85l0,4.85q0,.86.49.86.66,0,.75-.88,0-.63.15-1.9h-.8l-.08-1,1.81,0-.1,3.12a2.06,2.06,0,0,1-.47,1.34Zm1.63.45-.08-8.61,3.21,0-.08,1-1.77-.09L150,88.37l1.47,0,0,1.1L150,89.37l-.21,3.11,2.2-.28V93.3Zm8.85-.74a1.47,1.47,0,0,1-2.62,0,3,3,0,0,1-.35-1.58l0-3.76a4.11,4.11,0,0,1,.39-1.81,1.5,1.5,0,0,1,2.78-.11,3.4,3.4,0,0,1,.39,1.69,2.16,2.16,0,0,0,0,.24q0,1.25-.14,3.75a3.36,3.36,0,0,1-.44,1.6Z"/></svg>