<svg xmlns="http://www.w3.org/2000/svg" width="336" height="166" viewBox="0 0 336 166"><defs><style>.a{fill:#001145;}.b{fill:#f300d6;}</style></defs><title>game-logo</title><path class="a" d="M271.8,136.94l22.14-2.22c1.84,7.69,3.63,14.66,5.15,21.69.8,3.71-.73,6.4-4.73,6.76-6,.54-12,.82-18,1.09-3.26.15-4.73-1.35-4.63-4.84C271.94,152.36,271.8,145.28,271.8,136.94Z"/><path class="a" d="M49.84,124.17q0-.18-.14,5.63l-6.79-.28q.21-4.32.21-5a5.52,5.52,0,0,0-1-3.3,3.41,3.41,0,0,0-3-1.58q-4.4,0-4.32,5l.35,28.16q.07,5,2.88,5,3.83,0,4.32-5,.25-3.69.77-11.07l-4.68.07L38,136H48.54l-.42,18.14a12,12,0,0,1-2.67,7.77,9.14,9.14,0,0,1-7.35,3.23,9.08,9.08,0,0,1-7.35-3.23,11.57,11.57,0,0,1-2.6-7.77V124.59a11.64,11.64,0,0,1,2.78-7.91,9.42,9.42,0,0,1,7.52-3.37Q49.84,113.31,49.84,124.17Z"/><path class="a" d="M77.15,113.66l-1.58,40.18a12.24,12.24,0,0,1-2.71,7.7,9,9,0,0,1-7.31,3.23,10.07,10.07,0,0,1-7.66-3.16,11.26,11.26,0,0,1-3-7.77L54.2,115l8-1.37L62,153.49v.07q0,4.82,2.88,4.82,4.61,0,4.61-4.89V114.75Z"/><path class="a" d="M100.88,114l-.42,5.84-10.3-.42L89.21,135l8.51-.21-.21,6.4-8.65-.42L87.77,158.8,100.46,157v6.47l-17.3.95-.91-50Z"/><path class="a" d="M125,124.24q0,1.86-.11,4.78l-.18,4.82-6.12-2.25q.35-7.24.35-7.49,0-4.46-3.59-4.46a4,4,0,0,0-3.18,1.34,5.06,5.06,0,0,0-1.14,3.41v.88q0,3.13.14,4.82a13.6,13.6,0,0,0,3.8,8.09l6.12,6.19a12.74,12.74,0,0,1,3.2,8.33,15,15,0,0,1-2.25,8.65,8.85,8.85,0,0,1-7.77,3.8,9.18,9.18,0,0,1-7.38-3.23,11.67,11.67,0,0,1-2.57-7.77v-6l6.5-2.07q0,.95-.11,4,0,2.5,0,4,0,4.75,2.85,4.75,4,0,4-6.33a11.17,11.17,0,0,0-2.29-6.71,45.16,45.16,0,0,0-4.92-5.1,23.78,23.78,0,0,1-4.54-5.24q-1.51-2.74-1.51-9.95v-.81a11.64,11.64,0,0,1,2.78-7.91,9.42,9.42,0,0,1,7.52-3.37,9.74,9.74,0,0,1,7.52,3.23A10.94,10.94,0,0,1,125,124.24Z"/><path class="a" d="M149.12,124.24q0,1.86-.11,4.78l-.18,4.82-6.12-2.25q.35-7.24.35-7.49,0-4.46-3.59-4.46A4,4,0,0,0,136.3,121a5.06,5.06,0,0,0-1.14,3.41v.88q0,3.13.14,4.82a13.6,13.6,0,0,0,3.8,8.09l6.12,6.19a12.74,12.74,0,0,1,3.2,8.33,15,15,0,0,1-2.25,8.65,8.85,8.85,0,0,1-7.77,3.8,9.18,9.18,0,0,1-7.38-3.23,11.67,11.67,0,0,1-2.57-7.77v-6l6.5-2.07q0,.95-.11,4,0,2.5,0,4,0,4.75,2.85,4.75,4,0,4-6.33a11.17,11.17,0,0,0-2.29-6.71,45.16,45.16,0,0,0-4.92-5.1,23.78,23.78,0,0,1-4.54-5.24q-1.51-2.74-1.51-9.95v-.81a11.64,11.64,0,0,1,2.78-7.91,9.42,9.42,0,0,1,7.52-3.37,9.74,9.74,0,0,1,7.52,3.23A10.94,10.94,0,0,1,149.12,124.24Z"/><path class="a" d="M196.16,114,191,164.42l-8.16-.7-2-31L178,164.42l-8.05-.7-5.91-49,7.35-.35,3.09,41.84,3.59-41.84h5.24l3.13,41.84,4.15-41.84Z"/><path class="a" d="M221.29,164.57l-7.49-1,.56-20.64-7.35-.53-.7,21.41-4.46.49-2-49.75,8.23-.74-.81,23.63,7.28-.42.67-22.68,4.46-.53Z"/><path class="a" d="M246.11,154.12a12.12,12.12,0,0,1-2.67,7.77,10,10,0,0,1-14.7,0,11.57,11.57,0,0,1-2.6-7.77V124.59a11.64,11.64,0,0,1,2.78-7.91,9.42,9.42,0,0,1,7.52-3.37,9.62,9.62,0,0,1,7.52,3.27,11.23,11.23,0,0,1,2.78,7.73v.28Zm-5.34-29.53v-.49q0-4.46-3.59-4.46-4.15,0-4.32,5,0,3.2-.14,9.53-.21,13.22-.21,19.86,0,4.75,2.88,4.75,3.69,0,3.94-4.89Z"/><path class="b" d="M44.37,49.83a3.39,3.39,0,0,1,.53,1.38q.16,1.14-1.17,1.33a8.19,8.19,0,0,1-5.07-1.29,12,12,0,0,1-3.77-4.86,24.7,24.7,0,0,1-1.58-6.18l-.47-4.1-.32-3A11.09,11.09,0,0,0,31,38L30,47.3l-.18,7.87a4.23,4.23,0,0,1-1.84.69l-.86.09a5.15,5.15,0,0,1-1.43-.17l-2.48-.43-1.14-.86L21.47,51q0-.24-.29-3.84T20.72,42l-.48-5.26q-.75,2.29-1.35,4.84t-1.06,5.52a94.63,94.63,0,0,0-1,10.6,7.79,7.79,0,0,1-2.65.8,7.15,7.15,0,0,1-3.88-.39,5.41,5.41,0,0,1-2.06-2.45,14.59,14.59,0,0,1-.91-3.58L7.2,50.83A12.17,12.17,0,0,0,7,48.23l-.63-3.5-.57-2.39a1.75,1.75,0,0,0-.75-.87A1.64,1.64,0,0,0,4,41.24l-.46.16q0-.82,0-1.89a18.88,18.88,0,0,0-.17-2.12l-.56-4.74a6.57,6.57,0,0,1,1.92-2.06,10.19,10.19,0,0,1,3-1.43l2.82.39a8.69,8.69,0,0,1,1.45.31,7.6,7.6,0,0,1,1.23.49l1.11,13Q15.19,42,16.48,37A14.88,14.88,0,0,1,18,32.76a1.56,1.56,0,0,1,.49-1.52,3.38,3.38,0,0,1,1.72-.67l2-.13,1.54-.07.92.19A5,5,0,0,1,26,31a3.88,3.88,0,0,1,1.31,1.1l.61,1.61,3.59-7.37a9.13,9.13,0,0,1,1.05-.29q.59-.13,1.11-.2a10.62,10.62,0,0,1,8.54,2.21,24.4,24.4,0,0,1,0,5.86,64.63,64.63,0,0,0-.5,9.76l.22,1.57c.15.4.29.79.4,1.16a9.56,9.56,0,0,0,.35,1,11.37,11.37,0,0,0,.56,1.08Z"/><path class="b" d="M60.21,37.86a5.8,5.8,0,0,1-1.71,2.75A34.14,34.14,0,0,1,55,44.93q-1.42,1.65-1.28,2.7t1.66,1.85a4.51,4.51,0,0,0,1.8.6q.81.06,1.15.06a8.8,8.8,0,0,0,1.1-.1,11.4,11.4,0,0,0,2.83-.73,16.26,16.26,0,0,0,2.55-1.37,4.34,4.34,0,0,1,.6-.18q.81-.11.93.74A2.25,2.25,0,0,1,65.95,50a24.47,24.47,0,0,1-3.77,1.63,23.4,23.4,0,0,1-4.07.9,18.21,18.21,0,0,1-5.43,0l-4.73-2L47,49.61l-.72-.68q-.21-.5-.63-1.56A18.46,18.46,0,0,1,45,45.31q-.26-1-.38-1.55t-.28-1.68a32.08,32.08,0,0,1-.15-6.88,74.41,74.41,0,0,1,2-10.71,5.64,5.64,0,0,1,1.37-.65,8.34,8.34,0,0,1,1.55-.38,11.73,11.73,0,0,1,6.1,1L61,26.89l.71,1a2.08,2.08,0,0,1,.69,1.5,7.16,7.16,0,0,1-.37,3.3A43.94,43.94,0,0,0,60.21,37.86Zm-3.86-2.71a12.43,12.43,0,0,0,.35-4.85l-.15-1.09a11.63,11.63,0,0,0-3.48,6.34,20.81,20.81,0,0,0-.06,7A33.58,33.58,0,0,0,56.35,35.14Z"/><path class="b" d="M104.66,41.53a3.38,3.38,0,0,1,.53,1.38q.16,1.14-1.17,1.32a8.2,8.2,0,0,1-5.07-1.29,12,12,0,0,1-3.77-4.86A24.65,24.65,0,0,1,93.6,31.9l-.47-4.1-.32-3a11.09,11.09,0,0,0-1.55,4.91L90.31,39l-.18,7.87a4.23,4.23,0,0,1-1.84.69l-.86.09A5.15,5.15,0,0,1,86,47.49l-2.48-.43-1.14-.86-.63-3.5q0-.24-.29-3.84T81,33.73l-.48-5.26q-.75,2.28-1.34,4.84t-1.06,5.52a94.82,94.82,0,0,0-1,10.6,7.79,7.79,0,0,1-2.65.8,7.15,7.15,0,0,1-3.88-.39,5.41,5.41,0,0,1-2.06-2.45,14.6,14.6,0,0,1-.9-3.58l-.18-1.28a12.09,12.09,0,0,0-.16-2.59l-.63-3.5L66.13,34a1.75,1.75,0,0,0-.75-.87,1.64,1.64,0,0,0-1.1-.24l-.46.16q0-.82,0-1.89a19.15,19.15,0,0,0-.17-2.12l-.56-4.74A6.56,6.56,0,0,1,65,22.28a10.21,10.21,0,0,1,3-1.43l2.81.39a8.57,8.57,0,0,1,1.45.31,7.61,7.61,0,0,1,1.23.49l1.12,13q.93-1.34,2.22-6.41a14.89,14.89,0,0,1,1.56-4.19,1.56,1.56,0,0,1,.49-1.52,3.37,3.37,0,0,1,1.72-.67l2-.13,1.54-.07.92.19a5,5,0,0,1,1.25.46,3.9,3.9,0,0,1,1.32,1.1l.61,1.61,3.59-7.37a9.52,9.52,0,0,1,1-.29c.39-.08.76-.15,1.11-.2a10.62,10.62,0,0,1,8.54,2.22,24.44,24.44,0,0,1,0,5.86q-.74,8-.5,9.76l.22,1.57q.23.6.4,1.16a9.56,9.56,0,0,0,.35,1,11.53,11.53,0,0,0,.56,1.09Z"/><path class="b" d="M125.88,34.11q-.27,4.37-1,5.24-.53,1.09-.79,1.62a8.49,8.49,0,0,1-.86,1.48,3.77,3.77,0,0,1-1.73,1.16l-1.45.35-.9.13a17.1,17.1,0,0,1-5.7-.19,19.41,19.41,0,0,1-2.67-.75,7.54,7.54,0,0,1-2.27-1.39,4.19,4.19,0,0,1-1.46-1.28A9.82,9.82,0,0,1,105.73,38a32.55,32.55,0,0,1-.72-3.83,48.13,48.13,0,0,1-.42-5.18,56.94,56.94,0,0,1,.17-5.85l.63-6.69a4.34,4.34,0,0,1,1.44-.8,9,9,0,0,1,1.69-.4,14.72,14.72,0,0,1,3.1,0l3.33.22q.64,1.13,6,2.67a4.18,4.18,0,0,1,3,2.16,15,15,0,0,1,1.44,4.1,26.76,26.76,0,0,0,1.25,4.18,5,5,0,0,0,2.5-2.57,1.33,1.33,0,0,1,.41.5,4,4,0,0,1,.24,1,7.18,7.18,0,0,1,.06,1q0,.51,0,.75a1.66,1.66,0,0,1-.62,1.15A3.57,3.57,0,0,0,125.88,34.11ZM114.13,30a26.47,26.47,0,0,0,.16,5l.4,2.17a3.44,3.44,0,0,0,.19.82q.11.25.52,1.16l1.26,1.38a2,2,0,0,0,1.73.58L119,41a11.9,11.9,0,0,0,2.32-4.25A12.63,12.63,0,0,0,122,32a14.56,14.56,0,0,1-4.62-3,8.84,8.84,0,0,1-2.56-4.15q-.17.9-.37,2.42T114.13,30Zm4.27-4.9a5.62,5.62,0,0,0,3.36,3.32,10.13,10.13,0,0,0,0-3,10.34,10.34,0,0,0-.93-3.09,10.69,10.69,0,0,0-1.74-2.59,1.48,1.48,0,0,0-.94-.16,1.08,1.08,0,0,0-.93.61A18.75,18.75,0,0,0,118.4,25.15Z"/><path class="b" d="M147.42,26.58a23.29,23.29,0,0,0,0,5.82l.2,1.09a7.56,7.56,0,0,1-.32,3q-.58,2.11-1.63,2.26a10.61,10.61,0,0,1-3.44-1.42,11.17,11.17,0,0,1-1.67-3,13.7,13.7,0,0,1-.52-1.67,20.07,20.07,0,0,1-.38-2q-.14-1-.21-2.61t-.07-3.36V20.47a1.4,1.4,0,0,0-1.15-.23l-1.28.18A2.81,2.81,0,0,0,136,22.9a4,4,0,0,1-.28,2.2q-.12,3.32-.26,5.13-.25,2-.31,3-.28,2.18-.57,4.13t-.75,4.55a.83.83,0,0,1-.55.22l-1,.14-1.35-1.36,1.22-10.47a87.43,87.43,0,0,0,.48-10.61,2.83,2.83,0,0,1-1.39-1.32,6.07,6.07,0,0,1-.68-2.1,10.16,10.16,0,0,1,0-2.73L131,13a1.88,1.88,0,0,1,1-.77l1-.29a4,4,0,0,1,1.36,0l1.32.41a1.29,1.29,0,0,1,.64.79,5.29,5.29,0,0,1,.33,1.32l.19,1.34a2.17,2.17,0,0,0,.32.93,6.91,6.91,0,0,1,1.67-1.1,6.77,6.77,0,0,1,1.94-.56,13.14,13.14,0,0,1,2.1-.1,16,16,0,0,1,2.54.28l2.65.51a2.2,2.2,0,0,1,1.2,1.68,3.11,3.11,0,0,1,0,.7c0,.28-.06.58-.12.91l-.48,1.76q-.4,1.65-.71,3.08T147.42,26.58Z"/><path class="b" d="M174.18,51.67a6.48,6.48,0,0,1-1.68.47,10.75,10.75,0,0,1-3.55-.09,4,4,0,0,1-2.61-1,4.11,4.11,0,0,1-1.06-2.42l-1.52-13.47-.42-.57-1.92,2a6.89,6.89,0,0,1-1.39.89,3.73,3.73,0,0,1-1.14.23H157.8a6,6,0,0,1-2-.63A10.84,10.84,0,0,1,154,35.71a7.28,7.28,0,0,1-.91-1.33A10,10,0,0,1,152,32a38.92,38.92,0,0,1-1.07-5.28,64.32,64.32,0,0,1-.56-7.58L150.3,11a.9.9,0,0,1,.22-.93,1.93,1.93,0,0,1,1-.41h1.39l1.49.23a3.63,3.63,0,0,1,1.26.65,1.57,1.57,0,0,1,.51,1,14,14,0,0,1-.51,3,5.07,5.07,0,0,0-.13,1.86l-.21,5.89a38.8,38.8,0,0,0,.15,6,16.06,16.06,0,0,0,.91,3.61,11.91,11.91,0,0,0,1.87,3.18,4.53,4.53,0,0,0,2.73-2.7l.77-3.6a24.77,24.77,0,0,0,1.41-8.39q.15-3.8.31-5.13a16.6,16.6,0,0,1-.1-2.46,31.5,31.5,0,0,0,0-4.27A6.55,6.55,0,0,0,163,6.73l-.81-1.29,2.46-1.84a13.6,13.6,0,0,1,1.52-.79,5.68,5.68,0,0,1,1.47-.4,3.48,3.48,0,0,1,.89,0,2.23,2.23,0,0,0,.51,0l2.61,1,2.44,1.17q-.11,3.4-.23,6.81-.14,5-.18,8.55-.16,8,.14,15.47.13,3.76.49,7.75t.87,7.7A2.51,2.51,0,0,1,174.18,51.67Z"/><path class="b" d="M115.29,88.81q0,4.85.36,10T116.72,109q-.79.25-1.33.38t-1.68.28a14.87,14.87,0,0,1-4.36,0,8.75,8.75,0,0,1-3.52-1.26,37.89,37.89,0,0,0,.3-4.35,34.7,34.7,0,0,0-.36-5.23,39,39,0,0,1-.4-5.71q0-1.26.26-4.11a27.49,27.49,0,0,0-2,3.23q-1.32,2.41-3.17,2.67a6,6,0,0,1-2.42-.3,9.53,9.53,0,0,1-6.57-4.08,16.06,16.06,0,0,1-2.31-6.89Q89.76,74.38,90,73a29.1,29.1,0,0,1,3-10,5.19,5.19,0,0,1,2.59-1.23,18,18,0,0,1,5.16.9,9.39,9.39,0,0,0,3.34.35l2.18,1.06,2.23-.31q1.47-.2,2.87-.3t2.6-.12a8.44,8.44,0,0,1,3.87,1,1.53,1.53,0,0,1,.29.73q.07.52-.79,1.66a3,3,0,0,0-.92,1.73A176,176,0,0,0,115.29,88.81ZM95.42,76.13a43.48,43.48,0,0,0,.26,12.08l1.1,2.37a2,2,0,0,0,2.15,1.21A17.31,17.31,0,0,0,102.65,86q.36-.92.93-2.77t1-3.64l.55-3.71a21.36,21.36,0,0,0,.36-6.16l-.3-1.51a2.33,2.33,0,0,0-.16-.49l-.29-.71a10.63,10.63,0,0,0-.95-.72,5.2,5.2,0,0,0-.76-.45,4.6,4.6,0,0,0-2.31-.22A18,18,0,0,0,95.42,76.13Z"/><path class="b" d="M141.39,84.44q.93.07,1,.78a1.59,1.59,0,0,1-.55,1.29,1.86,1.86,0,0,1-1.47.59L138,86.84a8,8,0,0,1-3-1.24,6.27,6.27,0,0,1-.91-.65,10.38,10.38,0,0,1-1.48-1.59A19.8,19.8,0,0,0,130.59,88q-1.21,3.14-3.45,3.45a7.43,7.43,0,0,1-2.65-.27A6.64,6.64,0,0,1,120,87.23q-.47-1.63-.87-3t-.8-2.49a53.19,53.19,0,0,1,.25-8.89,49,49,0,0,1,1.77-8.81,4.25,4.25,0,0,1,1.74-1.79,8.55,8.55,0,0,1,2.88-.93,12.65,12.65,0,0,1,2.2-.06,4.33,4.33,0,0,1,2.54,1l2.39,1.85,4.31.33a5.86,5.86,0,0,1,3.5,1.12l-.92,7a32.92,32.92,0,0,0,.13,7.25,22.64,22.64,0,0,0,.77,3.48A2.11,2.11,0,0,0,141.39,84.44Zm-18.05-9.7a51.82,51.82,0,0,0,.39,11.6l.82,1.73a1.77,1.77,0,0,0,1.94.75,30.92,30.92,0,0,0,3.32-10.75,46.22,46.22,0,0,0-.17-11.77l-1.13-1.5a2,2,0,0,0-1.73-.63,3,3,0,0,0-1,.33A34,34,0,0,0,123.33,74.73Z"/><path class="b" d="M181.06,79.46a3.38,3.38,0,0,1,.53,1.38q.16,1.14-1.17,1.33a8.19,8.19,0,0,1-5.07-1.29A12,12,0,0,1,171.58,76,24.66,24.66,0,0,1,170,69.84l-.47-4.1-.32-3a11.08,11.08,0,0,0-1.55,4.91l-1,9.29-.18,7.87a4.24,4.24,0,0,1-1.84.69l-.86.09a5.15,5.15,0,0,1-1.43-.17L159.92,85l-1.14-.86-.63-3.5q0-.24-.29-3.84t-.46-5.12l-.48-5.26q-.75,2.29-1.34,4.84t-1.06,5.52a94.61,94.61,0,0,0-1,10.6,7.79,7.79,0,0,1-2.65.8,7.16,7.16,0,0,1-3.88-.39A5.41,5.41,0,0,1,145,85.32a14.64,14.64,0,0,1-.91-3.58l-.18-1.28a12.07,12.07,0,0,0-.16-2.59l-.63-3.5L142.53,72a1.75,1.75,0,0,0-.75-.87,1.65,1.65,0,0,0-1.1-.24l-.46.16q0-.82,0-1.89A18.9,18.9,0,0,0,140,67l-.55-4.74a6.59,6.59,0,0,1,1.92-2.06,10.23,10.23,0,0,1,3-1.43l2.82.39a8.57,8.57,0,0,1,1.45.31,7.66,7.66,0,0,1,1.23.49L151,73q.93-1.34,2.22-6.41a14.9,14.9,0,0,1,1.56-4.19,1.56,1.56,0,0,1,.49-1.52,3.36,3.36,0,0,1,1.72-.67l2-.13L160.5,60l.92.19a5,5,0,0,1,1.25.46,3.9,3.9,0,0,1,1.32,1.1l.61,1.61L168.19,56a9.52,9.52,0,0,1,1-.29c.39-.08.76-.15,1.11-.2a10.62,10.62,0,0,1,8.54,2.22,24.45,24.45,0,0,1,0,5.86,64.61,64.61,0,0,0-.5,9.76l.22,1.57q.23.6.4,1.16a9.56,9.56,0,0,0,.35,1,11.53,11.53,0,0,0,.56,1.09Z"/><path class="b" d="M196.91,67.49a5.81,5.81,0,0,1-1.7,2.75,34.4,34.4,0,0,1-3.53,4.31q-1.42,1.65-1.28,2.7t1.66,1.85a4.53,4.53,0,0,0,1.8.6q.81.06,1.15.06a9,9,0,0,0,1.1-.1,11.43,11.43,0,0,0,2.83-.73,16.22,16.22,0,0,0,2.55-1.37,4.29,4.29,0,0,1,.61-.18q.81-.11.93.75a2.26,2.26,0,0,1-.38,1.46,24.38,24.38,0,0,1-3.77,1.63,23.23,23.23,0,0,1-4.07.9,18.2,18.2,0,0,1-5.43,0l-4.73-2-.95-.89-.72-.67q-.21-.5-.63-1.56a18.22,18.22,0,0,1-.67-2.06q-.26-1-.38-1.55c-.08-.36-.17-.92-.28-1.68a32.07,32.07,0,0,1-.15-6.88,74.28,74.28,0,0,1,2-10.71,5.65,5.65,0,0,1,1.36-.65,8.43,8.43,0,0,1,1.55-.38,11.73,11.73,0,0,1,6.1,1l5.85,2.39.71,1a2.09,2.09,0,0,1,.69,1.5,7.16,7.16,0,0,1-.37,3.3A43.48,43.48,0,0,0,196.91,67.49ZM193,64.77a12.43,12.43,0,0,0,.35-4.84l-.15-1.09a11.64,11.64,0,0,0-3.48,6.34,20.83,20.83,0,0,0-.07,7A33.62,33.62,0,0,0,193,64.77Z"/><path class="a" d="M306.42,26.77q-.26-1.9-.38-2.84-.53-4.1-1.93-3.92t-.89,4.1L304,30q.46,3.57,1.81,3.4.84-.11,1-1.57a8.57,8.57,0,0,0,0-2.19Q306.68,28.68,306.42,26.77Z"/><polygon class="a" points="275.49 33.24 276.89 32.92 275.04 24.34 275.49 33.24"/><path class="a" d="M331.93,89.27C325.35,73,325,55.83,324.16,38.65c-.53-10.73-2.45-21.4-3.71-32.1-.42-3.57-2.4-4.81-5.83-4.28-3.84.59-7.76.79-11.55,1.62-18.65,4.11-37.26,8.42-55.9,12.56-10.29,2.29-10.27,2.21-12.26,12.48-2.8,14.41-5.56,28.82-8.55,43.19-.94,4.52-.11,7,5,7.53,6,.62,11.86,2,17.82,2.76,7.82,1,15.68,1.7,23.28,2.5.68-8.07,1.05-15.28,2-22.42.3-2.19,1.79-5.3,3.54-6a160.6,160.6,0,0,1,22.51-7.67c6.13-1.51,10,1.14,10.42,7.34a159.81,159.81,0,0,1-.27,25.33c-.64,7.4-2.86,8.4-10.46,9.15a197.57,197.57,0,0,0-23.51,3.74c-2.23.5-5.5,3.3-5.59,5.18-.54,10.73-.26,21.49-.26,32.32a10.52,10.52,0,0,0,2.5.53c7.72-.69,15.43-1.44,23.84-2.25-.42-3.29-.77-6.39-1.23-9.47-1.1-7.37.11-9.93,6.59-13.33,2.35-1.23,4.81-2.26,7.2-3.41,6.54-3.14,13.17-6.11,19.52-9.6C330.73,93.55,332.41,90.47,331.93,89.27ZM264.06,39.74a3.14,3.14,0,0,1-2.56,1.69,3.26,3.26,0,0,1-2.74-.8A4.14,4.14,0,0,1,257.5,38l-.28-2.13,2.19-1q0,.33.14,1.4.1.88.17,1.41.22,1.67,1.22,1.54,1.42-.18,1.13-2.41A4,4,0,0,0,261,34.55,16.23,16.23,0,0,0,259,33a8.46,8.46,0,0,1-1.83-1.64,8,8,0,0,1-1-3.43l0-.28a4.13,4.13,0,0,1,.62-2.91,3.34,3.34,0,0,1,2.49-1.53,3.46,3.46,0,0,1,2.79.79,3.88,3.88,0,0,1,1.35,2.58c.06.44.12,1,.18,1.69l.16,1.7-2.25-.51q-.21-2.56-.22-2.65-.2-1.57-1.46-1.41a1.41,1.41,0,0,0-1.06.61,1.8,1.8,0,0,0-.25,1.25l0,.31q.14,1.1.27,1.69a4.82,4.82,0,0,0,1.7,2.67l2.43,1.9a4.52,4.52,0,0,1,1.51,2.78A5.32,5.32,0,0,1,264.06,39.74Zm3.82.61-1.45-15.54-2.51.73-.43-2.38L270.42,22l.21,1.6-2.53.74,2.65,15.39Zm10.32-1.46L277.33,35l-1.74.07.23,4.17-2.64.47-.17-18,3.29-.29,3.87,17Zm9-1.95a3.53,3.53,0,0,1-5.17.67A4.11,4.11,0,0,1,280.8,35l-1.35-10.38a4.12,4.12,0,0,1,.62-2.91,3.34,3.34,0,0,1,2.49-1.53q4-.52,4.5,3.3l.21,2-2.4.21q-.12-1.53-.15-1.76a2,2,0,0,0-.5-1.12,1.21,1.21,0,0,0-1.11-.42q-1.55.2-1.3,1.94l1.41,9.89q.25,1.75,1.24,1.62,1.35-.17,1.29-2-.08-1.31-.23-3.93l-1.64.24-.44-2,3.7-.48.68,6.4A4.25,4.25,0,0,1,287.24,36.94Zm3.45.46-2.6-17.55,6.53-1,.12,2.07-3.64.32.37,5.51,3-.46.22,2.26-3.06.25.44,6.4L296.44,34l.29,2.27Zm17.85-4a3,3,0,0,1-2.46,2,3,3,0,0,1-2.89-1.28A6.2,6.2,0,0,1,302,31l-1-7.68a8.47,8.47,0,0,1,.29-3.8,3.09,3.09,0,0,1,5.65-1,7,7,0,0,1,1.27,3.33,4.45,4.45,0,0,0,0,.49q.28,2.56.77,7.7A6.93,6.93,0,0,1,308.54,33.43Z"/></svg>