<svg xmlns="http://www.w3.org/2000/svg" width="300" height="243.5" viewBox="0 0 300 243.5"><defs><style>.a{fill:#fff;}.b{fill:red;}</style></defs><title>movie-app-logo</title><polygon class="a" points="247.21 116.73 247.21 112.72 220.4 112.72 231.45 86.95 211.61 86.83 200.18 112.72 180.53 112.72 191.73 86.6 171.89 86.48 160.31 112.72 139.97 112.72 151.29 86.35 131.44 86.22 119.75 112.72 99.07 112.72 110.44 86.21 90.6 86.09 78.9 112.59 58.8 112.72 58.8 116.73 247.21 116.73"/><polygon class="a" points="74.39 54.67 93.02 76.69 112.27 70.68 93.33 48.75 74.39 54.67"/><polygon class="a" points="112.27 42.72 130.9 64.75 150.16 58.73 131.21 36.8 112.27 42.72"/><polygon class="a" points="150.88 30.65 169.5 52.67 188.76 46.66 169.82 24.73 150.88 30.65"/><polygon class="a" points="189.9 18.58 208.52 40.6 227.78 34.59 208.84 12.66 189.9 18.58"/><path class="a" d="M71.25,78A8.79,8.79,0,1,1,80,69.21,8.8,8.8,0,0,1,71.25,78Zm0-14.36a5.58,5.58,0,1,0,5.57,5.58A5.58,5.58,0,0,0,71.25,63.63Z"/><path class="a" d="M75.43,69.22a4.17,4.17,0,0,1-8.14,1.29,3.76,3.76,0,0,0,5.34-5.24A4.18,4.18,0,0,1,75.43,69.22Z"/><path class="a" d="M73.06,85.1,60.58,80.33l-6.5-20.78L231.21,4.21l9,28.68Zm-9.68-7.41,9.79,3.74L235.82,30.61,228.93,8.56,58.43,61.83Z"/><polygon class="a" points="60.53 116.73 60.53 97.15 69.25 88.35 245.47 88.35 245.47 116.73 248.94 116.73 248.94 84.88 67.81 84.88 57.06 95.72 57.06 116.73 60.53 116.73"/><path class="b" d="M29.62,178.15c-2.35-3.53-3.54-5.28-5.93-8.79-2.13-3.34-3.21-5-5.39-8.34l-.4.09,6.74,30c-3.26.73-4.89,1.11-8.14,1.89L4.12,141.38c3.45-.83,5.18-1.23,8.64-2,3.81,5.33,5.69,8,9.39,13.4,2.73,4.13,4.07,6.2,6.73,10.35l.39-.08c.82-5,1.24-7.49,2.13-12.49,1.27-6.29,1.93-9.43,3.32-15.71,3.44-.65,5.17-1,8.62-1.56l9.09,52.29c-3.28.57-4.92.87-8.2,1.49l-5.67-30-.32.06c-.7,4-1,6-1.68,10-.8,4-1.19,6.06-1.94,10.1Z"/><path class="b" d="M85.15,167.17c.52,4.6-.15,8.19-2,10.78s-4.94,4.16-9.4,4.77-7.86,0-10.24-2-3.92-5-4.59-9.2l-4.18-26.36a19.55,19.55,0,0,1-.12-5.77,11.59,11.59,0,0,1,1.74-4.78,10.8,10.8,0,0,1,3.91-3.52,17.89,17.89,0,0,1,6.29-1.93,20,20,0,0,1,6.82.07,10,10,0,0,1,4.65,2.24,10.73,10.73,0,0,1,2.82,4.13,22.34,22.34,0,0,1,1.36,5.76Zm-11.8-25.31a7.63,7.63,0,0,0-1.53-3.8c-.83-1.07-2.22-1.48-4.14-1.22a4.38,4.38,0,0,0-3.76,2.79,6.58,6.58,0,0,0-.43,2.22,12.69,12.69,0,0,0,.1,2.18l3.8,26.42A6.71,6.71,0,0,0,69,174a4,4,0,0,0,3.82,1.13,4,4,0,0,0,3.41-2.18,7.59,7.59,0,0,0,.56-4.26Z"/><path class="b" d="M110.59,125.27c3.82-.25,5.73-.36,9.55-.55q-4.15,26.76-7.57,53.61c-4,.27-5.94.42-9.89.75q-7.37-26-15.44-51.86c3.84-.39,5.77-.58,9.62-.91,2.33,8.55,3.47,12.84,5.69,21.41,1.57,6.58,2.34,9.86,3.86,16.45l.39,0c.5-6.74.77-10.11,1.33-16.84C109.05,138.48,109.54,134.08,110.59,125.27Z"/><path class="b" d="M129.3,177.44l-2-53c3.62-.14,5.43-.2,9.06-.28l1.28,53.06C134.28,177.26,132.62,177.31,129.3,177.44Z"/><path class="b" d="M147.13,177l-.4-53.07c10.37-.08,15.56,0,25.92.34l-.26,7.7c-6.66-.22-10-.29-16.66-.34l-.1,14.49c5.67,0,8.5.09,14.16.26l-.24,7.85c-5.59-.17-8.39-.22-14-.26l-.1,15.33c6.26,0,9.39.11,15.65.32l-.26,7.7C161.38,177,156.63,177,147.13,177Z"/><path class="b" d="M213.82,180.38c-.35-4.49-.53-6.73-.91-11.22-4-.42-6-.61-10-1q-.79,2.69-1.53,5.42T200,179c-3.37-.28-5.06-.41-8.43-.65q3.61-13.13,7.45-26.06t7.94-26c4,.35,6,.55,10,1q3,27,5.28,54C218.87,180.94,217.19,180.75,213.82,180.38ZM210.51,139q-1.34,5.39-2.73,10.73t-2.92,10.87c3,.27,4.51.41,7.51.72-.52-8.91-.81-13.37-1.44-22.29Z"/><path class="b" d="M248.13,131.38c5.32.82,9,2.75,11,5.68s2.49,7.18,1.49,12.73a29.3,29.3,0,0,1-1.92,6.55,13,13,0,0,1-3.38,4.71,12,12,0,0,1-5.12,2.57,18.74,18.74,0,0,1-7.25.07l-3.47-.53-3,20.14c-3.29-.49-4.94-.72-8.24-1.16l7-52.61C240.44,130.21,243,130.58,248.13,131.38Zm-5,7-2.52,17,3,.46c2.66.41,4.63,0,5.9-1.27s2.16-3.33,2.63-6.2a10.81,10.81,0,0,0-.5-6.33c-.77-1.65-2.52-2.7-5.26-3.12Z"/><path class="b" d="M283.67,137.93c5.28,1.13,8.86,3.26,10.71,6.3s2.09,7.31.77,12.8a29.22,29.22,0,0,1-2.3,6.43,13,13,0,0,1-3.65,4.5,12.08,12.08,0,0,1-5.27,2.27,18.84,18.84,0,0,1-7.26-.35l-3.44-.73-4.14,19.94c-3.27-.68-4.9-1-8.18-1.64l10-52.12C276,136.32,278.59,136.84,283.67,137.93Zm-5.36,6.74-3.49,16.8,3,.63c2.64.56,4.63.26,6-.93s2.35-3.2,3-6a10.78,10.78,0,0,0-.14-6.35c-.67-1.69-2.37-2.84-5.09-3.42Z"/><path class="a" d="M191.27,204.36a1.73,1.73,0,0,0-1.19.41,1.44,1.44,0,0,0-.47,1.13V221a1.44,1.44,0,0,0,.47,1.13,1.73,1.73,0,0,0,1.19.41,1.61,1.61,0,0,0,1.13-.41,1.46,1.46,0,0,0,.45-1.13V205.91a1.46,1.46,0,0,0-.45-1.13A1.61,1.61,0,0,0,191.27,204.36Z"/><path class="a" d="M145.44,183.88c-53.13,0-90.68,8.8-90.68,8.8v36.45A10.19,10.19,0,0,0,65,239.23H238a10.19,10.19,0,0,0,10.28-10.1V192.68S198.57,183.88,145.44,183.88Zm-37,24.82a1.92,1.92,0,0,0,.41.92,4.09,4.09,0,0,0,1,.86,11.5,11.5,0,0,0,1.87.9,11.5,11.5,0,0,1,2.65,1.39,5.4,5.4,0,0,1,1.49,1.62,5.6,5.6,0,0,1,.67,2,17.3,17.3,0,0,1,.16,2.5,13.77,13.77,0,0,1-.31,3,6,6,0,0,1-1,2.3,4.7,4.7,0,0,1-1.93,1.48,7.53,7.53,0,0,1-3,.52,7.62,7.62,0,0,1-2.8-.46,5.15,5.15,0,0,1-1.93-1.28,5,5,0,0,1-1.1-1.93,8,8,0,0,1-.34-2.37l3.89-.76a5.51,5.51,0,0,0,.54,2.29,1.86,1.86,0,0,0,1.82.88,2.24,2.24,0,0,0,1.25-.31,1.91,1.91,0,0,0,.7-.81,3.42,3.42,0,0,0,.29-1.15c0-.43.05-.89.05-1.37a8.94,8.94,0,0,0-.11-1.51,2.56,2.56,0,0,0-.41-1,2.7,2.7,0,0,0-.86-.76,15,15,0,0,0-1.46-.72,14.82,14.82,0,0,1-2.9-1.55,6.48,6.48,0,0,1-1.67-1.68,5.05,5.05,0,0,1-.76-1.87,12.18,12.18,0,0,1-.18-2.18,10.07,10.07,0,0,1,.36-2.78,6,6,0,0,1,1.12-2.18,5,5,0,0,1,1.93-1.42,7.06,7.06,0,0,1,2.8-.5,6.73,6.73,0,0,1,2.93.56,5.17,5.17,0,0,1,1.84,1.42,5.32,5.32,0,0,1,1,1.91,7.58,7.58,0,0,1,.29,2l-3.89.9a4.7,4.7,0,0,0-.46-2.23,1.88,1.88,0,0,0-1.82-.86,1.93,1.93,0,0,0-1.12.29,2.12,2.12,0,0,0-.66.76,2.93,2.93,0,0,0-.32,1,8.18,8.18,0,0,0-.07,1.08A7.79,7.79,0,0,0,108.4,208.7Zm18,17.3h-3.89V204.58h-4v-3.64h12v3.64h-4Zm14.26,0-1-5.22h-4.61q-.25,1.3-.49,2.61t-.45,2.61h-4q1.26-6.3,2.52-12.53t2.52-12.53h4.32L144.65,226Zm18.86-5.76a5.71,5.71,0,0,1-1.67,4.46,6.28,6.28,0,0,1-4.37,1.51,6,6,0,0,1-4.57-1.57,6.45,6.45,0,0,1-1.48-4.59V207.57a10.44,10.44,0,0,1,.32-2.65,5.85,5.85,0,0,1,1.06-2.18,5.14,5.14,0,0,1,1.89-1.48,6.59,6.59,0,0,1,2.81-.54,5.25,5.25,0,0,1,5.94,5.69v.29l-3.82.76a4.33,4.33,0,0,0-.51-2.23,1.77,1.77,0,0,0-1.65-.87,1.91,1.91,0,0,0-1.1.29,2,2,0,0,0-.65.74,3.35,3.35,0,0,0-.32,1,5.91,5.91,0,0,0-.09,1v12.73A3.87,3.87,0,0,0,152,222a1.68,1.68,0,0,0,1.43.54A2.41,2.41,0,0,0,155,222a1.85,1.85,0,0,0,.62-1.48v-4.93H153.4v-3.38h6.16Zm15-15.66h-7.24v6.84h6.3v3.71h-6.3v7.24h7.24V226H163.48V200.94H174.6Zm22.14,16.34a5.56,5.56,0,0,1-.43,2.25,4.93,4.93,0,0,1-1.17,1.67,4.85,4.85,0,0,1-1.73,1,6.45,6.45,0,0,1-2.11.34,6.57,6.57,0,0,1-2.15-.34,4.83,4.83,0,0,1-1.73-1,4.93,4.93,0,0,1-1.17-1.67,5.54,5.54,0,0,1-.43-2.25V206.09a5.67,5.67,0,0,1,.43-2.27,4.9,4.9,0,0,1,1.17-1.69,5.06,5.06,0,0,1,1.73-1,6.26,6.26,0,0,1,2.15-.36,5.56,5.56,0,0,1,3.94,1.4,5.13,5.13,0,0,1,1.52,4Z"/><path class="a" d="M137.31,206.74q-.36,2.59-.76,5.17t-.86,5.24h3.42l-1.62-10.4Z"/></svg>