<svg xmlns="http://www.w3.org/2000/svg" width="300" height="300" viewBox="0 0 300 300"><defs><style>.a{fill:red;}</style></defs><title>xmark</title><path class="a" d="M0,150Q0,115.72,0,81.4A79.88,79.88,0,0,1,14.55,35.08,79.26,79.26,0,0,1,37.93,12.61,81.33,81.33,0,0,1,64.59,1.87C75.42-.4,86.35,0,97.27,0Q157.41,0,217.55,0c17.57,0,33.73,4.83,48.12,15a79.45,79.45,0,0,1,21.63,23A83.6,83.6,0,0,1,299.06,69.2a65.66,65.66,0,0,1,.87,10.42c.06,47.4.14,94.8,0,142.19,0,10.62-2.81,20.82-7.28,30.49a81.25,81.25,0,0,1-21.21,28.13,82.12,82.12,0,0,1-26.55,15.06c-10.34,3.6-21,4.49-31.8,4.48-44.25,0-88.5.11-132.75-.08A78.12,78.12,0,0,1,40.78,289c-18-10.52-30.28-25.75-36.88-45.6A75.46,75.46,0,0,1,0,219.33Q.05,184.68,0,150ZM151.28,184.7c2.26,2.51,3.87,4.47,5.65,6.26Q171,205.08,185.1,219.14c6.2,6.22,12.33,12.51,18.58,18.67a25.88,25.88,0,0,0,5.07,3.81c5.91,3.46,12.18,3,18.49,1.38a21.76,21.76,0,0,0,15.42-13.8c3.05-7.74,3.94-15.58-1.14-22.82a81.27,81.27,0,0,0-8.48-9.47c-6.24-6.43-12.56-12.78-18.87-19.14-9.09-9.17-18.2-18.33-27.47-27.65.75-.81,1.4-1.56,2.09-2.27,16.8-17,33.65-34,50.38-51.08,6.08-6.22,8.85-16.22,4.59-25.14A31.52,31.52,0,0,0,231,58a22.54,22.54,0,0,0-12.2-3,20.92,20.92,0,0,0-14.52,6.55q-13.77,13.72-27.49,27.5c-8.44,8.5-16.83,17-25.23,25.57-.77-.73-1.34-1.23-1.87-1.77Q135.31,98.24,120.9,83.62c-6.52-6.6-13-13.23-19.64-19.72a48.88,48.88,0,0,0-6.94-5.63A20.31,20.31,0,0,0,81.7,55a24.75,24.75,0,0,0-13.42,5c-8.58,6.26-11.95,16.7-10,26.84a22.53,22.53,0,0,0,6.6,11.68q20.3,20.34,40.61,40.67c3.57,3.56,7.27,7,10.9,10.47L104.16,162q-9.35,9.5-18.7,19c-7.07,7.14-14.3,14.12-21.21,21.41a23.87,23.87,0,0,0-6.67,18.34,24.26,24.26,0,0,0,12.33,19.91c9.82,5.89,19.9,6,28.19-1.89C110,227.5,121.32,215.66,132.82,204,138.9,197.79,144.83,191.44,151.28,184.7Z"/></svg>