<?xml version="1.0" encoding="utf-8"?>
<!-- Generator: Adobe Illustrator 21.1.0, SVG Export Plug-In . SVG Version: 6.00 Build 0)  -->
<svg version="1.1" id="Layer_1" xmlns="http://www.w3.org/2000/svg" xmlns:xlink="http://www.w3.org/1999/xlink" x="0px" y="0px"
	 viewBox="0 0 50 50" style="enable-background:new 0 0 50 50;" xml:space="preserve">
<path d="M20.5,5.3c-1.4,0.4-2.5,1.2-2.8,1.9l-0.1,0.3l-1.9,0l-0.2-0.5c-0.2-0.4-0.3-0.6-0.7-0.7l-0.4-0.2h-3.2
	c-4.2,0-4.7,0.2-4.7,1.9v0.5L5.7,8.6C3.1,9.9,1,12.4,0.2,15.4L0,16.2v10.1c0,11,0,10.3,0.5,11.9c1.3,3.5,4.3,6,8,6.7
	c1.2,0.2,31.7,0.2,32.9,0c3.7-0.7,6.7-3.2,8-6.7C50,36.6,50,37.3,50,26.3V16.2l-0.2-0.8c-1.1-4-4-6.8-8.1-7.7
	c-0.6-0.1-1.4-0.2-5-0.2l-4.2,0l-0.1-0.3c-0.3-0.7-1.5-1.5-2.9-1.9C28.4,4.9,21.5,4.9,20.5,5.3z M40.1,10.8c3,0.3,5.3,2.1,6.3,5
	l0.3,0.8l0,9.3c0,10.6,0.1,10.2-0.8,11.9c-0.9,1.9-2.9,3.4-5,3.8c-1.1,0.2-30.7,0.2-31.9,0c-2.2-0.4-4.1-1.9-5.1-4
	C3.2,36,3.3,36.4,3.3,25.9l0-9.3l0.3-0.8c1-2.7,3.4-4.6,6.1-4.9C11,10.7,38.9,10.7,40.1,10.8L40.1,10.8z M9.5,11.9
	c-3.1,0.5-5.2,3-5.2,6.5v1.3h6.7l0.2-0.5c1-2,3-4.2,5.1-5.7c0.8-0.5,2.9-1.6,3.2-1.6c0.1,0,0.1,0,0.1-0.1
	C19.7,11.8,10.3,11.8,9.5,11.9L9.5,11.9z M30.3,11.9c0,0,0.2,0.1,0.4,0.2c3.1,1.1,6.8,4.4,8.1,7.2l0.2,0.4h6.7v-1.3
	c0-3.3-1.5-5.4-4.5-6.4C40.6,11.8,30.3,11.7,30.3,11.9L30.3,11.9z M24.1,12.5C12.7,13.6,7.1,26,14.1,34.8c7.7,9.8,23.8,4.9,24.8-7.5
	C39.6,19,32.3,11.7,24.1,12.5z M26.7,15.9c6.6,0.9,10.7,8,8.2,14.1c-2.9,7-12.1,8.9-17.4,3.4C10.4,26.3,16.6,14.5,26.7,15.9z
	 M23.9,17.6c-5.9,0.8-9.3,6.8-7,12.2c2.7,6.2,11.7,7,15.5,1.3C36.6,24.9,31.3,16.5,23.9,17.6z M27.7,18.9c1.1,0.3,2,1.2,2,1.9
	c0,1.8-3.5,1.7-4.7-0.1C24.1,19.4,25.7,18.3,27.7,18.9z M22.7,32.3c1.1,0.2,2.7,1.2,2.7,1.6c0,1-3.6,0.4-4.7-0.8
	C20,32.2,20.9,31.9,22.7,32.3z M41.9,36c-2,0.6-1.6,3.4,0.5,3.4c2.1,0,2.3-3.1,0.2-3.4C42.3,35.9,42.1,36,41.9,36L41.9,36z"/>
</svg>
