<svg xmlns="http://www.w3.org/2000/svg" width="500" height="500" viewBox="0 0 500 500"><defs><style>.a{fill:#fff;}</style></defs><title>gotop</title><path class="a" d="M488,429.49q-.2-178-.07-356c0-2.78-1.11-6,2.48-8,.66-.36.48-2.78.23-4.17-.47-2.61-1.75-5.15-1.86-7.75,0-.24,0-.47,0-.71a5.75,5.75,0,0,1-.06-.62,9.92,9.92,0,0,1-.46-1.31,10.41,10.41,0,0,1-.26-1.49c-6.8-17.4-18.21-29.56-35.43-36.37A40.19,40.19,0,0,1,448.48,12a26.83,26.83,0,0,1-10.41-2.49c-.77-.37-2,0-2.92.21-2.57.61-5.11,1.93-7.66,1.93q-178.48.14-357,0c-2.55,0-5.08-1.39-7.66-1.92a9.89,9.89,0,0,0-3.89,0c-2.47.51-4.87,1.65-7.33,1.86a5.36,5.36,0,0,1-1.13.18,5.07,5.07,0,0,1-.83.16,5.41,5.41,0,0,1-.82.2,4.74,4.74,0,0,1-.77.22,3.57,3.57,0,0,1-.44.13C28.63,19,16.77,31.91,9.91,50.23V50a5.36,5.36,0,0,1-.28.81,27.65,27.65,0,0,1-2.49,11.3c-.43.92-.34,3,.2,3.3,4.11,2.27,2.73,6.1,2.73,9.33q.1,176.73,0,353.47c0,3.25,1.31,7-2.66,9.45-.56.34.15,3,.48,4.5s1.36,3,1.33,4.45c0,1-.06,1.95-.09,2.92a10.37,10.37,0,0,1,.22,1.59,4.62,4.62,0,0,1,.37,1.15c6.58,18.8,19,30.91,37,37.61a7.89,7.89,0,0,1,1.81.59c-1.29-.57.18,0,.48.09s.7.17,1.06.25l.9.2a22.82,22.82,0,0,1,8.33,2.18c1,.5,2.62.15,3.88-.14,2.25-.52,4.44-1.88,6.66-1.88q179-.14,358,0c2.38,0,4.76,1.83,7.14,1.84s4.54-1.28,6.81-1.58c1.14-.22,2.3-.33,3.46-.46.54-.13,1.09-.25,1.67-.37,1.47-.3,2.93-.71,4.4-1,25.94-14.53,26.41-15.07,36.14-37.17.09-.36.19-.72.29-1.08a10.26,10.26,0,0,1,.66-2.49,11.66,11.66,0,0,1,.45-1.72,24.33,24.33,0,0,1,2.06-6.39c.42-.86,0-2.28-.35-3.35C489.73,434.69,488,432.1,488,429.49ZM454.26,251h0q0,89.74-.11,179.48c0,2.25-1.75,4.46-2.4,6.77-.38,1.37-.83,3.38-.16,4.26,3.88,5.08-.65,7.72-3.24,10.27-2.22,2.19-4.82,6.14-9.19,2.4-.85-.73-3.78-.67-4.14,0-2.13,3.73-5.54,2.46-8.46,2.46q-177.73.09-355.47,0c-2.74,0-6,1.33-8-2.34-.33-.62-2.88-.88-3.68-.3-6,4.31-8.73-1-11.71-4.16-2-2.12-4.89-5-1.24-8.51.65-.63.48-3.46-.06-3.72-4.21-2-2.63-5.76-2.63-8.78q-.1-177.48,0-355c0-2.85-1.48-6.35,2.53-8.31.59-.29.72-3.24,0-4.14-3.82-4.88.62-7.41,3-9.92s5-6.28,9.55-2.64c.87.69,3.81.51,4.11-.1,1.74-3.52,4.78-2.44,7.39-2.44q178.73-.07,357.47.05c2.26,0,4.48,1.66,6.8,2.22,1.5.36,3.63.8,4.63.06,4.73-3.49,7.19.63,9.51,3s6.37,4.87,3,9.52c-.72,1-.81,3.86-.26,4.16,4.42,2.41,2.63,6.43,2.64,9.73Q454.34,163,454.26,251Z"/><path class="a" d="M417.54,238.51c-1.67-4.51-3.77-8.87-5-11.73-4.05-2.82-7.42-4.5-10-7q-61.06-60.9-121.87-122c-2.52-2.54-4.24-5.88-6.72-9.4-16.18-10.05-33.67-10.69-50.87.68-1.53,2.42-2.73,5.38-4.81,7.47q-61,61.34-122.18,122.43c-2.88,2.87-6.63,4.88-10.83,7.91-1.45,3.47-3.62,8.2-5.4,13.06-5.44,14.83.55,32.59,14,40.55,5.29,3.13,11.14,5.32,16.81,7.77a6.17,6.17,0,0,0,3.43-.16c2.6-.58,5.16-1.87,7.74-1.9,16.83-.17,33.66-.09,50.49-.07,6.4,0,7.87,1.49,7.88,7.88,0,30.16.07,60.32-.09,90.48,0,3.56-1.37,7.1-2,10.68-.19,1.11-.44,2.73.15,3.37a8,8,0,0,1,2.09,6.36,8.34,8.34,0,0,1,.68,1.29c3.45,4,6.29,8.2,10,11.25,3.94,3.21,8.77,5.38,13.37,7.67,1,.52,2.82-.19,4.19-.58,2.06-.58,4.06-2,6.09-2q33-.23,66-.05c3.12,0,6.67-1.19,9.06,2.45.42.65,2.69.67,3.76.2,2.88-1.3,5.49-3.17,8.34-4.54,6.7-3.24,11.23-8.53,15.29-14.8l0,.22a4,4,0,0,1,.34-.54l.05-.14a8.51,8.51,0,0,1,2-6.8c.66-.76,0-2.81-.29-4.2-.41-1.8-1.57-3.54-1.57-5.31q-.15-47.74-.07-95.48c0-5.77,1.59-7.38,7.34-7.39,16,0,32-.13,48,.1,3.75.05,7.47,1.44,11.24,2a10.24,10.24,0,0,0,4.27-.55c1.3-.4,2.41-1.5,3.71-1.82C413.75,280.49,425.21,259.23,417.54,238.51Zm-40,13.08c-28.66,0-57.32.07-86-.08-2,0-4-1.58-6-2.18a32.28,32.28,0,0,0-4.66-.69l-1.22,1.05a57.38,57.38,0,0,1,2.79,5.09,9.83,9.83,0,0,1,.77,3.79q.07,61.24,0,122.48c0,4.43-2.5,6.85-7,6.86q-27.24.06-54.49,0c-4.49,0-7-2.47-7-6.94q-.06-61.24.06-122.48c0-1.46,1.48-2.88,2-4.4a39.48,39.48,0,0,0,1.09-4.57l-1.19-1.35c-1.7.81-3.36,1.71-5.11,2.38a12.28,12.28,0,0,1-4.19,1q-44,.09-88,0a45.49,45.49,0,0,1-5.28-.74,45.57,45.57,0,0,1,3.62-4.93Q180.69,183,243.65,120.12c4-4,6.69-4,10.64,0q63,62.88,125.86,125.82a48.57,48.57,0,0,1,3.72,5C381,251.25,379.25,251.59,377.52,251.59Z"/></svg>