<svg xmlns="http://www.w3.org/2000/svg" width="40" height="40" viewBox="0 0 40 40"><defs><style>.a{fill:#fff;}</style></defs><title>sun</title><path class="a" d="M19.9,14.38a5.63,5.63,0,1,1-4,1.65A5.63,5.63,0,0,1,19.9,14.38Zm0-2.81a8.44,8.44,0,1,0,6,2.47A8.44,8.44,0,0,0,19.9,11.56Z"/><path class="a" d="M4.6,6.8l2-2,4.93,4.93-2,2Z"/><path class="a" d="M0,18.59H7v2.81H0Z"/><path class="a" d="M4.6,32.62l4.93-4.93,2,2L6.59,34.61Z"/><path class="a" d="M18.5,32.88h2.81V40H18.5Z"/><path class="a" d="M33,18.59h7v2.81H33Z"/><path class="a" d="M28.08,9.74,33,4.81l2,2-4.93,4.93Z"/><path class="a" d="M28.08,29.68l2-2L35,32.62l-2,2Z"/><path class="a" d="M18.5,0h2.81V7.12H18.5Z"/></svg>